<?xml version="1.0" standalone="no"?>
<!DOCTYPE svg PUBLIC "-//W3C//DTD SVG 20010904//EN"
 "http://www.w3.org/TR/2001/REC-SVG-20010904/DTD/svg10.dtd">
<svg version="1.0" xmlns="http://www.w3.org/2000/svg"
 width="1080.000000pt" height="1080.000000pt" viewBox="0 0 1080.000000 1080.000000"
 preserveAspectRatio="xMidYMid meet">

<g transform="translate(0.000000,1080.000000) scale(0.100000,-0.100000)"
fill="#000000" stroke="none">
<path d="M0 5400 l0 -5400 5400 0 5400 0 0 5400 0 5400 -5400 0 -5400 0 0
-5400z m2987 -323 c-1 -177 -2 -32 -2 323 0 355 1 500 2 322 2 -177 2 -467 0
-645z m-477 412 l0 -292 36 -120 c20 -66 38 -126 41 -133 4 -12 -80 -14 -501
-14 -398 0 -506 3 -506 13 0 6 16 64 35 127 l35 115 0 298 0 297 430 0 430 0
0 -291z m6610 -70 l0 -329 35 0 c24 0 35 -5 35 -15 0 -12 -13 -15 -55 -15 -55
0 -55 0 -55 31 l0 31 -30 -25 c-93 -78 -228 -50 -280 58 -58 120 28 255 163
255 54 0 79 -10 120 -48 l27 -26 0 192 0 192 -35 0 c-24 0 -35 5 -35 14 0 11
14 16 48 18 26 2 50 2 55 0 4 -2 7 -151 7 -333z m-4542 -1 l2 -327 33 -3 c20
-2 32 -8 32 -18 0 -11 -14 -16 -52 -18 l-53 -3 0 37 0 38 -27 -26 c-41 -38
-66 -48 -118 -48 -141 0 -225 131 -164 257 52 108 206 129 289 41 l20 -22 0
192 0 192 -35 0 c-29 0 -35 4 -35 21 0 18 5 20 53 17 l52 -3 3 -327z m242 117
l0 -216 34 34 c66 67 177 69 216 4 17 -27 20 -51 20 -149 l0 -118 35 0 c24 0
35 -5 35 -15 0 -12 -17 -15 -90 -15 -73 0 -90 3 -90 15 0 10 11 15 35 15 l35
0 0 113 c0 128 -10 152 -64 163 -44 8 -118 -24 -143 -62 -14 -22 -18 -48 -18
-118 l0 -91 33 -3 c18 -2 32 -9 32 -17 0 -17 -156 -33 -172 -17 -17 17 1 32
38 32 l34 0 0 310 0 310 -35 0 c-28 0 -35 4 -35 20 0 17 7 20 50 20 l50 0 0
-215z m-882 -135 l130 -305 36 -3 c28 -3 36 -8 36 -23 0 -18 -6 -20 -87 -17
-70 2 -88 6 -88 18 0 10 12 16 33 18 17 2 32 4 32 6 0 1 -22 54 -49 117 l-50
114 -127 3 c-71 1 -132 -2 -137 -7 -10 -10 -97 -210 -97 -223 0 -5 14 -8 30
-8 23 0 30 -4 30 -20 0 -19 -7 -20 -91 -20 -81 0 -90 2 -87 18 2 11 14 18 38
20 l35 3 134 315 c74 173 138 311 142 307 4 -5 66 -145 137 -313z m3310 233
c-2 -55 -6 -68 -20 -71 -15 -3 -18 5 -18 52 l0 56 -155 0 -155 0 0 -135 0
-135 155 0 c131 0 155 -2 155 -15 0 -12 -15 -15 -72 -15 -40 0 -110 -3 -155
-7 l-83 -6 0 -133 0 -134 40 0 c29 0 40 -4 40 -15 0 -12 -17 -15 -95 -15 -78
0 -95 3 -95 15 0 10 11 15 35 15 l35 0 -2 288 -3 287 -32 3 c-21 2 -33 9 -33
18 0 12 37 14 230 14 l231 0 -3 -67z m-1780 -239 c20 -8 49 -27 65 -41 l27
-27 0 37 c0 26 4 37 15 37 13 0 15 -24 15 -155 l0 -155 35 0 c24 0 35 -5 35
-15 0 -11 -12 -15 -50 -15 -49 0 -50 1 -50 30 0 32 -14 40 -24 15 -8 -23 -85
-55 -130 -55 -83 0 -164 65 -181 147 -13 62 31 154 89 185 53 28 105 33 154
12z m607 -27 l30 -35 37 33 c64 59 166 57 206 -4 13 -19 18 -53 19 -146 l3
-120 30 -3 c18 -2 30 -9 30 -18 0 -11 -19 -14 -91 -14 -68 0 -90 3 -87 13 3 6
20 14 39 17 l34 5 3 95 c3 109 -1 133 -28 160 -41 41 -142 16 -180 -45 -16
-26 -20 -50 -20 -124 l0 -91 35 0 c24 0 35 -5 35 -15 0 -12 -17 -15 -90 -15
-73 0 -90 3 -90 15 0 10 11 15 35 15 l35 0 0 115 c0 110 -1 117 -25 140 -43
44 -127 28 -174 -31 -18 -23 -21 -40 -21 -125 l0 -98 32 -3 c17 -2 33 -9 36
-15 3 -10 -19 -13 -87 -13 -74 0 -91 3 -91 15 0 10 11 15 35 15 l36 0 -3 138
-3 137 -32 3 c-21 2 -33 9 -33 18 0 10 13 14 50 14 l50 0 0 -42 1 -43 21 29
c31 41 93 68 148 62 36 -3 51 -11 75 -39z m1529 10 c101 -78 99 -225 -5 -294
-35 -23 -53 -28 -104 -28 -70 0 -115 24 -156 83 -53 78 -19 204 68 252 56 30
148 24 197 -13z m246 -112 c5 -129 6 -138 29 -156 44 -36 119 -20 171 36 23
25 25 34 25 123 l0 97 -33 3 c-24 2 -32 8 -30 19 2 12 15 16 48 16 l45 0 5
-154 5 -154 33 -3 c20 -2 32 -9 32 -18 0 -10 -13 -14 -50 -14 l-50 0 0 36 0
36 -39 -35 c-63 -57 -154 -62 -202 -11 -22 24 -24 34 -27 155 l-4 129 -34 0
c-22 0 -34 5 -34 13 0 21 4 22 57 21 l48 -1 5 -138z m653 131 c18 -7 41 -23
52 -36 l20 -22 5 33 c3 18 11 34 17 36 9 4 13 -34 15 -154 l3 -158 33 -3 c20
-2 32 -9 32 -18 0 -10 -13 -14 -50 -14 -49 0 -50 0 -50 32 l0 31 -23 -21 c-30
-28 -89 -52 -129 -52 -41 0 -112 35 -138 67 -71 90 -37 235 65 279 39 17 108
17 148 0z"/>
<path d="M1670 5480 l0 -280 410 0 410 0 0 280 0 280 -410 0 -410 0 0 -280z
m780 10 l0 -230 -367 2 -368 3 -3 215 c-1 118 0 220 2 227 4 10 84 13 371 13
l365 0 0 -230z m-300 -260 c0 -6 -28 -10 -65 -10 -37 0 -65 4 -65 10 0 6 28
10 65 10 37 0 65 -4 65 -10z"/>
<path d="M1740 5490 l0 -210 345 0 345 0 0 210 0 210 -345 0 -345 0 0 -210z
m198 108 l-3 -63 -82 -3 -83 -3 0 66 0 65 85 0 86 0 -3 -62z m452 -53 l0 -115
-39 0 c-49 0 -64 18 -19 22 l33 3 3 93 3 92 -181 0 -181 0 3 -92 3 -93 63 -3
c88 -4 78 -22 -13 -22 l-75 0 0 115 0 115 200 0 200 0 0 -115z m-150 -36 c69
-26 78 -34 51 -48 l-21 -12 27 -40 27 -41 -25 -19 c-34 -26 -52 -24 -73 12
-16 26 -22 29 -48 23 l-31 -6 6 47 c4 26 7 61 7 76 0 35 8 35 80 8z m-305 -59
c4 -6 -25 -10 -79 -10 -51 0 -86 4 -86 10 0 6 33 10 79 10 44 0 83 -4 86 -10z
m0 -90 c-3 -5 -42 -10 -86 -10 -46 0 -79 4 -79 10 0 6 35 10 86 10 54 0 83 -4
79 -10z"/>
<path d="M1792 5598 l3 -43 58 -3 57 -3 0 46 0 45 -61 0 -60 0 3 -42z"/>
<path d="M2178 5463 c-3 -38 -1 -43 14 -40 12 4 24 -6 39 -29 21 -34 42 -43
54 -24 4 6 -5 26 -19 45 -15 20 -22 36 -16 40 18 11 10 22 -29 37 l-39 16 -4
-45z"/>
<path d="M1660 5143 c-5 -21 -21 -73 -34 -115 l-24 -78 479 0 c263 0 479 1
479 3 0 1 -15 52 -34 112 l-34 110 -410 3 -411 2 -11 -37z m535 -89 c8 -20 12
-40 9 -45 -6 -11 -241 -12 -247 -1 -3 4 2 24 10 45 l15 37 99 0 99 0 15 -36z"/>
<path d="M1990 5050 c-10 -19 -8 -20 89 -20 94 0 99 1 94 20 -5 18 -14 20 -89
20 -73 0 -85 -2 -94 -20z"/>
<path d="M8895 5373 c-88 -22 -133 -133 -85 -211 96 -156 330 -33 251 132 -31
64 -99 96 -166 79z"/>
<path d="M4325 5352 c-50 -32 -68 -59 -73 -110 -7 -77 36 -138 111 -156 69
-17 159 44 172 117 9 44 -19 112 -57 139 -42 30 -115 35 -153 10z"/>
<path d="M3742 5507 c-29 -67 -52 -127 -52 -132 0 -9 207 -11 216 -2 4 4 -94
237 -105 250 -4 4 -31 -48 -59 -116z"/>
<path d="M5330 5348 c-121 -81 -67 -258 79 -258 127 0 188 148 98 238 -30 30
-44 36 -89 40 -44 3 -59 0 -88 -20z"/>
<path d="M7456 5370 c-34 -11 -73 -45 -92 -82 -45 -87 29 -198 131 -198 110 0
182 123 123 210 -43 62 -102 88 -162 70z"/>
<path d="M8386 5370 c-83 -25 -124 -139 -77 -216 37 -61 136 -82 199 -44 44
27 75 96 66 146 -8 44 -48 92 -91 110 -36 16 -55 16 -97 4z"/>
</g>
</svg>
