<svg version="1.2" baseProfile="tiny-ps" xmlns="http://www.w3.org/2000/svg" viewBox="0 0 1080 139" width="1080" height="139">
	<title>Adham Fouad Logo-svg</title>
	<style>
		tspan { white-space:pre }
		.shp0 { fill: #000000 } 
	</style>
	<rect width="1080" height="139" style="fill: #ffffff" />
	<g >
		<path fill-rule="evenodd" class="shp0" d="M0 -476L1080 -476L1080 604L0 604L0 -476ZM298.7 31.8C298.6 14 298.5 28.5 298.5 64C298.5 99.5 298.6 114 298.7 96.3C298.9 78.5 298.9 49.5 298.7 31.8ZM251 26L165 26L165 85.5L161.5 97C159.6 103.3 158 109.1 158 109.7C158 110.7 168.8 111 208.6 111C250.7 111 259.1 110.8 258.7 109.6C258.4 108.9 256.6 102.9 254.6 96.3L251 84.3L251 26ZM911.3 28.8C910.8 28.6 908.4 28.6 905.8 28.8C902.4 29 901 29.5 901 30.6C901 31.5 902.1 32 904.5 32L908 32L908 70.4L905.3 67.8C901.2 64 898.7 63 893.3 63C879.8 63 871.2 76.5 877 88.5C882.2 99.3 895.7 102.1 905 94.3L908 91.8L908 94.9C908 98 908 98 913.5 98C917.7 98 919 97.7 919 96.5C919 95.5 917.9 95 915.5 95L912 95L912 62.1C912 43.9 911.7 29 911.3 28.8ZM457.5 29.5L452.3 29.2C447.5 28.9 447 29.1 447 30.9C447 32.6 447.6 33 450.5 33L454 33L454 71.4L452 69.2C443.7 60.4 428.3 62.5 423.1 73.3C417 85.9 425.4 99 439.5 99C444.7 99 447.2 98 451.3 94.2L454 91.6L454 99.1L459.3 98.8C463.1 98.6 464.5 98.1 464.5 97C464.5 96 463.3 95.4 461.3 95.2L458 94.9L457.8 62.2L457.5 29.5ZM482 29L477 29C472.7 29 472 29.3 472 31C472 32.6 472.7 33 475.5 33L479 33L479 95L475.6 95C471.9 95 470.1 96.5 471.8 98.2C473.4 99.8 489 98.2 489 96.5C489 95.7 487.6 95 485.8 94.8L482.5 94.5L482.5 85.4C482.5 78.4 482.9 75.8 484.3 73.6C486.8 69.8 494.2 66.6 498.6 67.4C504 68.5 505 70.9 505 83.7L505 95L501.5 95C499.1 95 498 95.5 498 96.5C498 97.7 499.7 98 507 98C514.3 98 516 97.7 516 96.5C516 95.5 514.9 95 512.5 95L509 95L509 83.2C509 73.4 508.7 71 507 68.3C503.1 61.8 492 62 485.4 68.7L482 72.1L482 29ZM380.1 32.7C379.7 32.3 373.3 46.1 365.9 63.4L352.5 94.9L349 95.2C346.6 95.4 345.4 96.1 345.2 97.2C344.9 98.8 345.8 99 353.9 99C362.3 99 363 98.9 363 97C363 95.4 362.3 95 360 95C358.4 95 357 94.7 357 94.2C357 92.9 365.7 72.9 366.7 71.9C367.2 71.4 373.3 71.1 380.4 71.2L393.1 71.5L398.1 82.9C400.8 89.2 403 94.5 403 94.6C403 94.8 401.5 95 399.8 95.2C397.7 95.4 396.5 96 396.5 97C396.5 98.2 398.3 98.6 405.3 98.8C413.4 99.1 414 98.9 414 97.1C414 95.6 413.2 95.1 410.4 94.8L406.8 94.5L393.8 64C386.7 47.2 380.5 33.2 380.1 32.7ZM725.1 34L702 34C682.7 34 679 34.2 679 35.4C679 36.3 680.2 37 682.3 37.2L685.5 37.5L685.8 66.2L686 95L682.5 95C680.1 95 679 95.5 679 96.5C679 97.7 680.7 98 688.5 98C696.3 98 698 97.7 698 96.5C698 95.4 696.9 95 694 95L690 95L690 68.3L698.3 67.7C702.8 67.3 709.8 67 713.8 67C719.5 67 721 66.7 721 65.5C721 64.2 718.6 64 705.5 64L690 64L690 37L721 37L721 42.6C721 47.3 721.3 48.1 722.8 47.8C724.2 47.5 724.6 46.2 724.8 40.7L725.1 34ZM531.4 65.8C525.6 68.9 521.2 78.1 522.5 84.3C524.2 92.5 532.3 99 540.6 99C545.1 99 552.8 95.8 553.6 93.5C554.6 91 556 91.8 556 95C556 97.9 556.1 98 561 98C564.8 98 566 97.6 566 96.5C566 95.5 564.9 95 562.5 95L559 95L559 79.5C559 66.4 558.8 64 557.5 64C556.4 64 556 65.1 556 67.7L556 71.4L553.3 68.7C551.7 67.3 548.8 65.4 546.8 64.6C541.9 62.5 536.7 63 531.4 65.8ZM600 63.4C594.5 62.8 588.3 65.5 585.2 69.6L583.1 72.5L583 68.2L583 64L578 64C574.3 64 573 64.4 573 65.4C573 66.3 574.2 67 576.3 67.2L579.5 67.5L579.8 81.2L580.1 95L576.5 95C574.1 95 573 95.5 573 96.5C573 97.7 574.7 98 582.1 98C588.9 98 591.1 97.7 590.8 96.7C590.5 96.1 588.9 95.4 587.2 95.2L584 94.9L584 85.1C584 76.6 584.3 74.9 586.1 72.6C590.8 66.7 599.2 65.1 603.5 69.5C605.9 71.8 606 72.5 606 83.5L606 95L602.5 95C600.1 95 599 95.5 599 96.5C599 97.7 600.7 98 608 98C615.3 98 617 97.7 617 96.5C617 95.5 615.9 95 613.5 95L610 95L610 85.9C610 78.5 610.4 76.1 612 73.5C615.8 67.4 625.9 64.9 630 69C632.7 71.7 633.1 74.1 632.8 85L632.5 94.5L629.1 95C627.2 95.3 625.5 96.1 625.2 96.7C624.9 97.7 627.1 98 633.9 98C641.1 98 643 97.7 643 96.6C643 95.7 641.8 95 640 94.8L637 94.5L636.7 82.5C636.6 73.2 636.1 69.8 634.8 67.9C630.8 61.8 620.6 61.6 614.2 67.5L610.5 70.8L607.5 67.3C605.1 64.5 603.6 63.7 600 63.4ZM740.7 65C732 69.8 728.6 82.4 733.9 90.2C738 96.1 742.5 98.5 749.5 98.5C754.6 98.5 756.4 98 759.9 95.7C770.3 88.8 770.5 74.1 760.4 66.3C755.5 62.6 746.3 62 740.7 65ZM784.5 63.7L779.7 63.6C774.4 63.5 774 63.6 774 65.7C774 66.5 775.2 67 777.4 67L780.8 67L781.2 79.9C781.5 92 781.7 93 783.9 95.4C788.7 100.5 797.8 100 804.1 94.3L808 90.8L808 98L813 98C816.7 98 818 97.6 818 96.6C818 95.7 816.8 95 814.8 94.8L811.5 94.5L810.5 63.7L806 63.7C802.7 63.7 801.4 64.1 801.2 65.3C801 66.4 801.8 67 804.2 67.2L807.5 67.5L807.5 77.2C807.5 86.1 807.3 87 805 89.5C799.8 95.1 792.3 96.7 787.9 93.1C785.6 91.3 785.5 90.4 785 77.5L784.5 63.7ZM835.5 64.4C825.3 68.8 821.9 83.3 829 92.3C831.6 95.5 838.7 99 842.8 99C846.8 99 852.7 96.6 855.7 93.8L858 91.7L858 94.8C858 98 858.1 98 863 98C866.7 98 868 97.6 868 96.6C868 95.7 866.8 95 864.8 94.8L861.5 94.5L861.2 78.7C861 66.7 860.6 62.9 859.7 63.3C859.1 63.5 858.3 65.1 858 66.9L857.5 70.2L855.5 68C854.4 66.7 852.1 65.1 850.3 64.4C846.3 62.7 839.4 62.7 835.5 64.4Z" />
		<path fill-rule="evenodd" class="shp0" d="M167 28L249 28L249 84L167 84L167 28ZM245 32L208.5 32C179.8 32 171.8 32.3 171.4 33.3C171.2 34 171.1 44.2 171.2 56L171.5 77.5L208.3 77.8L245 78L245 32ZM208.5 80C204.8 80 202 80.4 202 81C202 81.6 204.8 82 208.5 82C212.2 82 215 81.6 215 81C215 80.4 212.2 80 208.5 80Z" />
		<path fill-rule="evenodd" class="shp0" d="M174 34L243 34L243 76L174 76L174 34ZM194.1 38L177 38L177 51.1L185.3 50.8L193.5 50.5L193.8 44.2L194.1 38ZM239 38L199 38L199 61L206.5 61C215.6 61 216.6 59.2 207.8 58.8L201.5 58.5L201.2 49.2L200.9 40L237.1 40L236.8 49.2L236.5 58.5L233.2 58.8C228.7 59.2 230.2 61 235.1 61L239 61L239 38ZM216 53.9C216 55.4 215.7 58.9 215.3 61.5L214.7 66.2L217.8 65.6C220.4 65 221 65.3 222.6 67.9C224.7 71.5 226.5 71.7 229.9 69.1L232.4 67.2L229.7 63.1L227 59.1L229.1 57.9C231.8 56.5 230.9 55.7 224 53.1C216.8 50.4 216 50.4 216 53.9ZM184.9 58C180.3 58 177 58.4 177 59C177 59.6 180.5 60 185.6 60C191 60 193.9 59.6 193.5 59C193.2 58.4 189.3 58 184.9 58ZM185.6 67C180.5 67 177 67.4 177 68C177 68.6 180.3 69 184.9 69C189.3 69 193.2 68.5 193.5 68C193.9 67.4 191 67 185.6 67Z" />
		<path class="shp0" d="M179.2 44.2L179.5 48.5L185.3 48.8L191 49.1L191 44.5L191 40L184.9 40L178.9 40L179.2 44.2Z" />
		<path class="shp0" d="M217.8 57.7C217.5 61.5 217.7 62 219.2 61.7C220.4 61.3 221.6 62.3 223.1 64.6C225.2 68 227.3 68.9 228.5 67C228.9 66.4 228 64.4 226.6 62.5C225.1 60.5 224.4 58.9 225 58.5C226.8 57.4 226 56.3 222.1 54.8L218.2 53.2L217.8 57.7Z" />
		<path fill-rule="evenodd" class="shp0" d="M167.1 86L208.2 86.2L249.2 86.5L252.6 97.5C254.5 103.5 256 108.6 256 108.7C256 108.9 234.4 109 208.1 109L160.2 109L162.6 101.2C163.9 97 165.5 91.8 166 89.7L167.1 86ZM218 95L198.2 95L196.7 98.7C195.9 100.8 195.4 102.8 195.7 103.2C196.3 104.3 219.8 104.2 220.4 103.1C220.7 102.6 220.3 100.6 219.5 98.6L218 95Z" />
		<path class="shp0" d="M199 99C198 100.9 198.2 101 207.9 101C217.3 101 217.8 100.9 217.3 99C216.8 97.2 215.9 97 208.4 97C201.1 97 199.9 97.2 199 99Z" />
		<path class="shp0" d="M889.5 66.7C880.7 68.9 876.2 80 881 87.8C890.6 103.4 914 91.1 906.1 74.6C903 68.2 896.2 65 889.5 66.7Z" />
		<path class="shp0" d="M432.5 68.8C427.5 72 425.7 74.7 425.2 79.8C424.5 87.5 428.8 93.6 436.3 95.4C443.2 97.1 452.2 91 453.5 83.7C454.4 79.3 451.6 72.5 447.8 69.8C443.6 66.8 436.3 66.3 432.5 68.8Z" />
		<path class="shp0" d="M374.2 53.3C371.3 60 369 66 369 66.5C369 67.4 389.7 67.6 390.6 66.7C391 66.3 381.2 43 380.1 41.7C379.7 41.3 377 46.5 374.2 53.3Z" />
		<path class="shp0" d="M533 69.2C520.9 77.3 526.3 95 540.9 95C553.6 95 559.7 80.2 550.7 71.2C547.7 68.2 546.3 67.6 541.8 67.2C537.4 66.9 535.9 67.2 533 69.2Z" />
		<path class="shp0" d="M745.6 67C742.2 68.1 738.3 71.5 736.4 75.2C731.9 83.9 739.3 95 749.5 95C760.5 95 767.7 82.7 761.8 74C757.5 67.8 751.6 65.2 745.6 67Z" />
		<path class="shp0" d="M838.6 67C830.3 69.5 826.2 80.9 830.9 88.6C834.6 94.7 844.5 96.8 850.8 93C855.2 90.3 858.3 83.4 857.4 78.4C856.6 74 852.6 69.2 848.3 67.4C844.7 65.8 842.8 65.8 838.6 67Z" />
	</g>
</svg>