<?xml version="1.0" standalone="no"?>
<!DOCTYPE svg PUBLIC "-//W3C//DTD SVG 20010904//EN"
 "http://www.w3.org/TR/2001/REC-SVG-20010904/DTD/svg10.dtd">
<svg version="1.0" xmlns="http://www.w3.org/2000/svg"
 width="1480.000000pt" height="1480.000000pt" viewBox="0 0 1480.000000 1480.000000"
 preserveAspectRatio="xMidYMid meet">
<metadata>
Created by potrace 1.14, written by Peter Selinger 2001-2017
</metadata>
<g transform="translate(0.000000,1480.000000) scale(0.100000,-0.100000)"
fill="#000000" stroke="none">
<path d="M5846 10930 c-119 -12 -165 -55 -177 -168 -5 -37 -8 -592 -8 -1233
l-1 -1166 63 -60 62 -60 483 -6 c266 -3 486 -8 489 -10 2 -3 -16 -36 -40 -73
-24 -38 -55 -89 -68 -114 -51 -99 -19 -253 62 -292 72 -36 130 -40 664 -45
716 -7 772 1 835 111 53 91 41 168 -50 322 -28 47 -49 88 -47 90 2 2 224 7
493 10 l489 7 63 61 63 60 -3 1220 c-3 1198 -3 1222 -23 1261 -27 54 -68 72
-194 84 -119 13 -3027 13 -3155 1z m3206 -2217 c-1 -98 -4 -200 -7 -228 l-6
-50 -1599 0 -1600 0 -5 40 c-2 22 -6 124 -7 228 l-3 187 1615 0 1615 0 -3
-177z m-1101 -575 c86 -133 125 -216 110 -231 -24 -24 -1243 -18 -1268 6 -7 8
36 83 121 215 l66 102 456 0 455 0 60 -92z"/>
<path d="M7383 8785 c-85 -37 -98 -175 -21 -229 29 -20 110 -21 148 -1 42 22
60 53 60 106 0 37 -6 55 -26 79 -49 58 -100 72 -161 45z"/>
<path d="M5909 7551 c-104 -6 -120 -9 -157 -34 -23 -15 -49 -38 -57 -51 -26
-40 -35 -181 -35 -576 0 -488 5 -508 123 -562 l52 -23 1135 0 c833 0 1158 3
1222 12 171 24 183 43 199 310 12 199 6 629 -10 741 -23 150 -54 167 -339 182
-198 10 -1937 11 -2133 1z m2301 -623 l0 -443 -1179 5 c-649 3 -1183 9 -1188
13 -4 5 -9 197 -11 427 l-3 419 23 6 c49 10 145 12 1236 13 l1122 2 0 -442z"/>
<path d="M6009 7211 c-54 -53 -59 -77 -35 -136 20 -46 69 -75 128 -75 143 0
171 198 35 249 -54 21 -77 14 -128 -38z"/>
<path d="M6402 7243 c-46 -22 -65 -64 -59 -127 4 -41 10 -55 41 -83 31 -28 43
-33 87 -33 46 0 55 4 90 39 33 33 39 45 39 81 0 38 -6 49 -49 91 -54 55 -88
62 -149 32z"/>
<path d="M6773 7241 c-46 -29 -66 -74 -61 -133 8 -81 72 -126 153 -108 73 17
115 86 96 157 -23 85 -118 128 -188 84z"/>
<path d="M7154 7246 c-17 -8 -41 -27 -53 -42 -19 -24 -22 -38 -19 -83 4 -47
10 -59 41 -88 30 -27 45 -33 80 -33 55 0 105 32 130 82 17 35 17 39 2 72 -10
20 -35 51 -56 71 -43 38 -73 43 -125 21z"/>
<path d="M7513 7240 c-84 -51 -84 -183 0 -226 70 -37 156 -12 183 53 53 126
-70 243 -183 173z"/>
<path d="M7885 7237 c-55 -31 -82 -85 -67 -136 34 -113 183 -135 247 -37 38
57 16 125 -55 174 -41 28 -74 28 -125 -1z"/>
<path d="M6450 6893 c-92 -19 -143 -138 -92 -211 46 -63 52 -64 485 -60 264 3
401 8 419 16 37 15 78 79 78 121 0 43 -33 97 -73 118 -28 15 -77 18 -412 19
-209 1 -391 0 -405 -3z"/>
<path d="M6045 6875 c-97 -35 -111 -164 -25 -223 29 -20 44 -23 88 -20 105 9
148 104 92 207 -20 39 -97 57 -155 36z"/>
<path d="M7533 6879 c-83 -24 -112 -135 -53 -203 59 -67 141 -69 194 -5 87
103 -10 246 -141 208z"/>
<path d="M7891 6877 c-89 -45 -90 -176 -2 -234 46 -31 80 -29 129 7 75 54 80
156 11 214 -34 29 -96 35 -138 13z"/>
<path d="M8694 7549 c-37 -11 -106 -75 -130 -120 -40 -79 -37 -550 5 -644 23
-53 69 -91 133 -110 68 -20 286 -21 352 -1 64 20 122 59 142 97 24 48 39 334
26 500 -16 195 -48 246 -168 275 -66 15 -310 18 -360 3z m334 -184 c9 -3 12
-63 12 -254 l0 -251 -22 -4 c-13 -3 -83 -7 -155 -9 l-133 -4 0 266 0 266 142
-3 c79 -1 149 -5 156 -7z"/>
<path d="M2431 5770 c-153 -11 -164 -24 -65 -79 60 -33 81 -62 94 -130 12 -65
14 -521 2 -521 -5 0 -17 10 -28 21 -76 85 -234 120 -378 83 -153 -39 -259
-128 -330 -277 -63 -131 -81 -220 -80 -392 1 -158 19 -245 74 -358 79 -162
229 -257 406 -257 117 0 200 36 297 129 l47 45 0 -81 c0 -45 3 -84 8 -86 9 -6
341 11 365 19 27 9 16 26 -35 54 -67 37 -85 57 -99 109 -8 32 -14 290 -19 856
-5 446 -12 824 -17 840 -9 29 -12 30 -69 31 -32 1 -110 -2 -173 -6z m-75 -701
c18 -11 44 -33 58 -49 49 -59 51 -79 51 -475 l0 -370 -26 -55 c-54 -114 -134
-170 -243 -170 -112 0 -200 61 -251 172 -90 196 -83 625 12 813 45 87 122 149
204 163 59 10 155 -4 195 -29z"/>
<path d="M3125 5770 c-55 -3 -110 -10 -123 -14 -34 -11 -23 -37 23 -53 66 -22
96 -53 107 -109 14 -80 23 -1373 9 -1490 -14 -119 -27 -142 -96 -161 -28 -8
-56 -21 -64 -28 -28 -27 33 -36 265 -36 230 0 274 4 274 25 0 7 -23 23 -52 37
-93 44 -93 41 -96 342 -4 316 7 490 37 567 51 133 151 211 281 218 73 4 99 -5
160 -56 l35 -30 0 -484 c0 -553 6 -518 -91 -562 -86 -40 -70 -50 89 -56 75 -3
199 -3 274 0 113 4 138 8 138 20 0 9 -25 25 -62 40 -35 14 -69 32 -76 40 -34
37 -39 86 -51 526 l-11 441 -30 59 c-33 64 -92 116 -153 134 -61 19 -187 24
-240 10 -106 -29 -188 -87 -255 -182 l-42 -60 -11 434 c-6 238 -11 434 -12
436 -3 3 -115 0 -227 -8z"/>
<path d="M14385 5770 c-165 -11 -183 -27 -82 -75 92 -44 97 -58 109 -316 5
-115 8 -241 6 -281 l-3 -71 -50 43 c-70 61 -125 83 -220 88 -209 11 -390 -102
-487 -304 -51 -106 -61 -184 -55 -419 5 -208 20 -273 88 -374 76 -114 164
-171 293 -191 142 -21 267 6 343 74 26 24 55 55 62 70 24 45 32 29 30 -59 -1
-47 0 -87 2 -89 6 -6 340 13 362 20 28 9 15 26 -44 59 -58 33 -73 55 -90 132
-6 29 -14 357 -19 848 -5 519 -12 810 -19 828 -12 30 -19 31 -226 17z m-130
-681 c47 -13 98 -58 128 -114 19 -36 22 -62 27 -235 7 -270 -4 -552 -24 -616
-29 -93 -141 -174 -238 -174 -80 0 -126 17 -178 66 -53 50 -90 113 -117 199
-25 83 -25 481 0 593 33 142 93 228 191 273 47 21 148 25 211 8z"/>
<path d="M8543 5601 c-94 -3 -174 -9 -178 -13 -14 -13 7 -28 62 -44 31 -9 66
-26 78 -38 40 -40 45 -132 45 -766 0 -610 -6 -720 -40 -763 -10 -12 -46 -31
-81 -42 -68 -22 -84 -39 -44 -49 33 -8 556 -9 601 0 46 8 44 32 -3 39 -109 17
-146 30 -167 58 -20 27 -21 42 -24 369 l-3 340 108 -4 c90 -3 116 -7 158 -28
58 -29 91 -73 100 -133 20 -132 56 -188 71 -110 8 42 -2 574 -12 616 -9 40
-32 33 -45 -15 -69 -258 -78 -268 -270 -268 l-109 0 0 348 c0 204 4 362 10
384 15 51 42 58 244 58 251 0 328 -26 374 -123 11 -24 33 -102 47 -173 30
-141 47 -176 65 -130 10 28 32 474 23 489 -5 8 -741 6 -1010 -2z"/>
<path d="M753 5588 c-6 -7 -29 -62 -53 -123 -23 -60 -118 -306 -210 -545 -325
-841 -329 -850 -425 -949 -36 -37 -65 -73 -65 -79 0 -12 84 -15 340 -12 150 2
158 18 30 61 -77 26 -120 65 -120 108 0 50 27 148 84 306 l54 150 294 3 293 2
72 -192 c40 -106 79 -219 87 -251 22 -86 13 -101 -76 -128 -40 -12 -77 -25
-82 -30 -23 -21 59 -30 284 -30 300 0 347 14 234 68 -30 14 -62 36 -69 47 -14
22 -153 370 -420 1056 -170 435 -219 550 -233 550 -5 0 -14 -6 -19 -12z m73
-677 c67 -179 119 -330 115 -334 -10 -10 -497 -5 -507 5 -7 8 78 247 194 546
43 112 57 140 65 127 5 -10 65 -164 133 -344z"/>
<path d="M12008 5165 c-3 -3 -77 -10 -164 -16 -88 -5 -169 -11 -181 -14 -38
-9 -27 -33 20 -46 23 -6 54 -17 69 -25 50 -26 53 -55 53 -469 l0 -380 -33 -69
c-46 -97 -92 -149 -159 -182 -97 -48 -206 -31 -257 39 -20 28 -21 43 -27 570
-4 395 -9 548 -18 565 -14 26 -33 27 -231 12 -189 -14 -204 -27 -86 -79 61
-27 75 -37 79 -59 3 -15 11 -194 17 -397 17 -570 24 -608 122 -686 68 -53 131
-72 231 -67 133 5 251 73 330 187 l32 46 11 -104 c7 -65 16 -107 25 -113 14
-9 338 -1 365 9 29 11 12 29 -53 60 -38 17 -75 42 -83 55 -13 19 -16 109 -20
593 -4 504 -7 570 -20 573 -9 1 -19 0 -22 -3z"/>
<path d="M4810 5153 c-111 -18 -249 -94 -300 -164 -58 -80 -32 -197 50 -226
109 -39 217 63 175 164 -9 21 -32 55 -52 75 l-36 37 34 20 c114 71 282 65 357
-12 24 -25 35 -48 43 -92 15 -82 8 -277 -10 -299 -20 -24 -81 -54 -261 -126
-293 -118 -384 -207 -383 -375 0 -55 6 -82 27 -127 52 -110 136 -152 289 -146
78 2 102 8 157 34 36 17 94 57 128 89 34 32 64 56 66 54 1 -2 8 -23 14 -45 25
-88 92 -133 197 -134 93 0 217 64 202 105 -5 13 -11 13 -48 0 -46 -16 -97 -19
-117 -7 -15 10 -26 190 -42 642 -11 311 -18 370 -53 421 -32 47 -114 88 -204
104 -74 14 -179 17 -233 8z m280 -766 c0 -106 -5 -209 -11 -230 -24 -87 -144
-167 -248 -167 -67 1 -149 40 -169 82 -23 49 -26 124 -7 194 26 98 67 136 259
238 88 47 163 83 168 80 4 -3 8 -92 8 -197z"/>
<path d="M6268 5141 c-78 -31 -114 -58 -198 -149 l-80 -87 0 110 c0 61 -4 116
-9 124 -8 12 -39 13 -181 7 -94 -4 -178 -10 -186 -13 -32 -12 -10 -47 40 -65
27 -9 64 -32 83 -50 l33 -32 0 -435 c0 -453 -6 -543 -41 -580 -11 -11 -44 -28
-74 -36 -131 -38 -65 -56 211 -56 229 0 274 4 274 25 0 7 -24 23 -52 37 -83
38 -83 37 -86 384 -5 464 12 550 127 658 67 62 121 87 194 87 61 0 100 -14
130 -48 29 -32 39 -203 35 -640 -3 -445 2 -420 -95 -448 -29 -8 -55 -20 -58
-25 -14 -22 59 -30 285 -30 299 0 356 16 216 58 -105 32 -101 13 -101 451 0
410 4 442 59 536 49 83 153 145 244 146 62 0 107 -18 146 -59 l27 -29 -3 -495
c-3 -558 3 -519 -83 -552 -46 -17 -58 -38 -28 -49 9 -4 120 -7 248 -7 294 0
351 16 210 58 -85 26 -92 44 -105 259 -5 93 -10 250 -10 349 0 197 -13 381
-30 444 -25 94 -134 161 -273 169 -160 9 -290 -57 -379 -194 l-42 -66 -17 52
c-27 83 -67 130 -144 170 -60 31 -78 35 -154 38 -65 1 -97 -2 -133 -17z"/>
<path d="M10065 5141 c-92 -27 -144 -58 -215 -130 -127 -128 -162 -237 -162
-496 0 -260 37 -379 155 -503 98 -101 225 -152 380 -152 252 1 459 157 518
390 22 88 19 447 -5 525 -57 188 -192 324 -371 371 -71 19 -227 16 -300 -5z
m292 -74 c69 -44 110 -123 150 -288 23 -94 26 -452 5 -539 -39 -159 -103 -263
-187 -301 -53 -25 -147 -24 -200 0 -87 40 -152 150 -186 313 -27 134 -27 382
2 521 34 171 83 257 171 302 47 23 62 26 128 23 60 -4 84 -10 117 -31z"/>
<path d="M12674 5132 c-170 -60 -257 -155 -238 -260 15 -84 46 -114 119 -114
81 0 145 54 145 122 0 38 -16 65 -73 127 -17 18 -29 34 -26 36 19 15 107 48
156 58 105 22 218 -17 253 -86 11 -23 15 -67 15 -189 l0 -158 -34 -29 c-19
-15 -91 -51 -160 -80 -321 -131 -365 -157 -418 -247 -22 -38 -28 -61 -31 -133
-6 -116 13 -174 75 -228 64 -57 124 -74 238 -69 79 3 101 8 157 36 36 17 95
59 131 93 63 57 67 59 67 35 0 -37 23 -89 51 -115 37 -35 86 -51 154 -51 52 0
75 6 126 33 67 35 91 59 73 77 -8 8 -24 7 -55 -4 -66 -24 -94 -21 -108 11 -16
35 -30 288 -31 553 -1 374 -20 461 -119 536 -63 48 -127 65 -266 70 -112 4
-125 2 -201 -24z m356 -763 c0 -237 -4 -256 -69 -310 -58 -48 -114 -70 -175
-70 -67 0 -114 21 -161 72 -33 37 -35 43 -35 107 0 165 42 216 270 332 85 44
158 79 163 80 4 0 7 -95 7 -211z"/>
</g>
</svg>
